<?xml version="1.0" standalone="no"?>
<!DOCTYPE svg PUBLIC "-//W3C//DTD SVG 20010904//EN"
 "http://www.w3.org/TR/2001/REC-SVG-20010904/DTD/svg10.dtd">
<svg version="1.0" xmlns="http://www.w3.org/2000/svg"
 width="96.000000pt" height="96.000000pt" viewBox="0 0 96.000000 96.000000"
 preserveAspectRatio="xMidYMid meet">
<metadata>
Created by potrace 1.11, written by Peter Selinger 2001-2013
</metadata>
<g transform="translate(0.000000,96.000000) scale(0.100000,-0.100000)"
fill="#000000" stroke="none">
<path d="M280 891 c-75 -23 -160 -85 -184 -135 -14 -30 -14 -66 1 -66 3 0 29
24 57 53 68 68 133 101 185 92 100 -17 121 -127 52 -265 -37 -74 -71 -109
-114 -116 -35 -5 -37 -4 -32 18 39 170 55 311 35 323 -22 14 -41 -21 -80 -144
-65 -207 -96 -352 -91 -428 3 -48 72 -83 99 -50 6 7 13 52 15 100 3 49 8 91
11 94 3 3 24 14 46 24 l40 18 9 -37 c46 -171 -140 -311 -260 -196 -24 23 -31
25 -44 14 -33 -28 -10 -101 40 -125 98 -46 261 19 315 126 38 73 34 157 -10
218 -17 24 -17 25 30 72 49 49 96 123 107 168 9 41 131 155 187 176 44 17 52
17 89 4 53 -18 79 -61 79 -130 -1 -102 -70 -247 -158 -332 -32 -31 -54 -45
-54 -34 0 8 49 284 56 317 3 14 7 51 9 83 2 45 -1 60 -13 64 -8 4 -20 -1 -27
-10 -21 -28 -122 -407 -142 -532 -3 -16 -8 -48 -12 -70 -9 -50 -1 -88 21 -115
20 -23 60 -26 77 -6 10 12 18 77 20 172 1 23 8 34 27 43 33 15 40 9 49 -35 10
-58 55 -143 87 -166 39 -27 109 -36 127 -14 11 13 7 19 -33 43 -55 33 -84 85
-102 183 l-12 64 38 42 c92 100 134 208 128 325 -6 97 -30 141 -93 165 -87 33
-214 -3 -296 -83 l-37 -35 -6 30 c-8 34 -49 76 -89 91 -32 12 -110 13 -147 2z"/>
</g>
</svg>
